{
	"asset":{
		"version":"2.0",
		"generator":"Created using the official Cinema 4D glTF Exporter 1.000x290161"
	},
	"scenes":[{
		"nodes":[0,
		1]
	}],
	"nodes":[{
		"name":"Food_10",
		"translation":[-7.907,
		0,
		2.686],
		"rotation":[0.707,
		0,
		0,
		-0.707],
		"scale":[1,
		1,
		1],
		"mesh":0
	},
	{
		"name":"Wall_01",
		"translation":[3.97,
		0,
		0.75],
		"rotation":[0.707,
		0,
		0,
		-0.707],
		"scale":[1,
		1,
		1],
		"mesh":1
	}],
	"meshes":[{
		"primitives":[{
			"attributes":{
				"POSITION":1,
				"NORMAL":2,
				"TEXCOORD_0":3
			},
			"indices":0,
			"material":0
		}]
	},
	{
		"primitives":[{
			"attributes":{
				"POSITION":5,
				"NORMAL":6,
				"TEXCOORD_0":7
			},
			"indices":4,
			"material":1
		}]
	}],
	"accessors":[{
		"bufferView":0,
		"type":"SCALAR",
		"componentType":5123,
		"count":108,
		"byteOffset":0,
		"min":[0],
		"max":[81]
	},
	{
		"bufferView":1,
		"type":"VEC3",
		"componentType":5126,
		"count":82,
		"byteOffset":0,
		"min":[-0.181,
		-0.081,
		0],
		"max":[0.181,
		0.081,
		0.36]
	},
	{
		"bufferView":1,
		"type":"VEC3",
		"componentType":5126,
		"count":82,
		"byteOffset":12,
		"min":[-1,
		-1,
		-1],
		"max":[1,
		1,
		1]
	},
	{
		"bufferView":1,
		"type":"VEC2",
		"componentType":5126,
		"count":82,
		"byteOffset":24,
		"min":[0.201,
		0.523],
		"max":[0.359,
		0.78]
	},
	{
		"bufferView":2,
		"type":"SCALAR",
		"componentType":5123,
		"count":60,
		"byteOffset":0,
		"min":[0],
		"max":[39]
	},
	{
		"bufferView":3,
		"type":"VEC3",
		"componentType":5126,
		"count":40,
		"byteOffset":0,
		"min":[-0.247,
		-4.251,
		0],
		"max":[0.247,
		3.849,
		1.712]
	},
	{
		"bufferView":3,
		"type":"VEC3",
		"componentType":5126,
		"count":40,
		"byteOffset":12,
		"min":[-1,
		-1,
		-1],
		"max":[1,
		1,
		1]
	},
	{
		"bufferView":3,
		"type":"VEC2",
		"componentType":5126,
		"count":40,
		"byteOffset":24,
		"min":[0.869,
		0.008],
		"max":[0.879,
		0.016]
	}],
	"bufferViews":[{
		"buffer":0,
		"byteOffset":0,
		"byteLength":216,
		"target":34963
	},
	{
		"buffer":0,
		"byteOffset":216,
		"byteLength":2624,
		"target":34962,
		"byteStride":32
	},
	{
		"buffer":1,
		"byteOffset":0,
		"byteLength":120,
		"target":34963
	},
	{
		"buffer":1,
		"byteOffset":120,
		"byteLength":1280,
		"target":34962,
		"byteStride":32
	}],
	"buffers":[{
		"uri":"data:application/octet-stream;base64,",
		"byteLength":2840
	},
	{
		"uri":"data:application/octet-stream;base64,",
		"byteLength":1400
	}],
	"images":[{
		"uri":"data:image/jpeg;base64,"
	},
	{
		"uri":"data:image/jpeg;base64,"
	}],
	"samplers":[{
		"magFilter":9729,
		"minFilter":9729,
		"wrapS":10497,
		"wrapT":10497
	},
	{
		"magFilter":9729,
		"minFilter":9729,
		"wrapS":10497,
		"wrapT":10497
	}],
	"textures":[{
		"sampler":0,
		"source":0
	},
	{
		"sampler":1,
		"source":1
	}],
	"materials":[{
		"pbrMetallicRoughness":{
			"baseColorTexture":{
				"index":0
			},
			"baseColorFactor":[1,
			1,
			1,
			1],
			"metallicFactor":0,
			"roughnessFactor":0.5
		},
		"emissiveFactor":[0,
		0,
		0],
		"alphaMode":"OPAQUE",
		"doubleSided":false,
		"name":"goods_L"
	},
	{
		"pbrMetallicRoughness":{
			"baseColorTexture":{
				"index":1
			},
			"baseColorFactor":[1,
			1,
			1,
			1],
			"metallicFactor":0,
			"roughnessFactor":0.5
		},
		"emissiveFactor":[0,
		0,
		0],
		"alphaMode":"OPAQUE",
		"doubleSided":false,
		"name":"goods"
	}]
}